<svg xmlns="http://www.w3.org/2000/svg" viewBox="0 0 248 64" width="248" height="64" role="img" aria-label="Roam">
  <title>Roam</title>
  <defs>
    <linearGradient id="roam-word" x1="78" y1="14" x2="176" y2="48" gradientUnits="userSpaceOnUse">
      <stop offset="0" stop-color="#dbeafe"/>
      <stop offset=".42" stop-color="#8FB9F2"/>
      <stop offset="1" stop-color="#58A6FF"/>
    </linearGradient>
    <linearGradient id="roam-rule" x1="78" y1="48" x2="184" y2="48" gradientUnits="userSpaceOnUse">
      <stop offset="0" stop-color="#58A6FF"/>
      <stop offset="1" stop-color="#1F6FEB"/>
    </linearGradient>
  </defs>

  <!-- 背景透明，和 logo-mark.svg 同一枚丝带（132x188 → 40.7x58） -->
  <g transform="translate(11.65 3) scale(.3085)">
    <g fill="#1F6FEB">
      <path d="M66 0 66 56 42 72 0 44Z"/>
      <path d="M90 72 132 100 108 116 66 88Z"/>
      <path d="M21 114 63 142 0 184 0 128Z"/>
    </g>
    <g fill="#58A6FF">
      <path d="M66 0 132 44 132 100 90 72 66 56Z"/>
      <path d="M0 44 132 132 132 188 0 100Z"/>
    </g>
  </g>

  <text x="78" y="41" font-family="Inter, ui-sans-serif, system-ui, -apple-system, BlinkMacSystemFont, Segoe UI, sans-serif"
        font-size="32" font-weight="850" letter-spacing=".2" fill="url(#roam-word)">Roam</text>
  <text x="80" y="55" font-family="Inter, ui-sans-serif, system-ui, sans-serif"
        font-size="8.5" font-weight="800" letter-spacing="3.6" fill="#64748b">ANYWHERE · ANYTIME</text>
  <path d="M78 48H184" stroke="url(#roam-rule)" stroke-width="1.4" stroke-linecap="round" opacity=".38"/>
</svg>
